<svg id="Group_3389" data-name="Group 3389" xmlns="http://www.w3.org/2000/svg" width="28.442" height="32.312" viewBox="0 0 28.442 32.312">
  <path id="Path_7136" data-name="Path 7136" d="M56.724,64.9H51.738a2.089,2.089,0,0,1-2.087-2.087V57.829a2.089,2.089,0,0,1,2.087-2.087h4.986a2.089,2.089,0,0,1,2.087,2.087v4.986A2.089,2.089,0,0,1,56.724,64.9Zm-4.986-7.83a.758.758,0,0,0-.757.757v4.986a.758.758,0,0,0,.757.757h4.986a.758.758,0,0,0,.757-.757V57.829a.758.758,0,0,0-.757-.757H51.738Z" transform="translate(-35.408 -37.41)" fill="#aaa"/>
  <g id="Group_3388" data-name="Group 3388" transform="translate(5.402)">
    <path id="Path_7137" data-name="Path 7137" d="M30.452,18.714h-.676a2.167,2.167,0,0,1-2.165-2.165V12.208a2.167,2.167,0,0,1,2.165-2.165h.676a2.167,2.167,0,0,1,2.165,2.165V16.55A2.167,2.167,0,0,1,30.452,18.714Zm-.676-7.009a.5.5,0,0,0-.5.5V16.55a.5.5,0,0,0,.5.5h.676a.5.5,0,0,0,.5-.5V12.208a.5.5,0,0,0-.5-.5Z" transform="translate(-27.612 -10.043)" fill="#aaa"/>
    <path id="Path_7138" data-name="Path 7138" d="M61.944,18.714h-.676A2.167,2.167,0,0,1,59.1,16.55V12.208a2.167,2.167,0,0,1,2.165-2.165h.676a2.167,2.167,0,0,1,2.165,2.165V16.55A2.167,2.167,0,0,1,61.944,18.714Zm-.676-7.009a.5.5,0,0,0-.5.5V16.55a.5.5,0,0,0,.5.5h.676a.5.5,0,0,0,.5-.5V12.208a.5.5,0,0,0-.5-.5Z" transform="translate(-46.471 -10.043)" fill="#aaa"/>
  </g>
  <path id="Path_7139" data-name="Path 7139" d="M47.047,21.352H38.624a.831.831,0,0,1,0-1.662h8.423a.831.831,0,0,1,0,1.662Z" transform="translate(-28.307 -15.82)" fill="#aaa"/>
  <path id="Path_7140" data-name="Path 7140" d="M36.894,48.132H19.84a5.7,5.7,0,0,1-5.694-5.694V25.385A5.7,5.7,0,0,1,19.84,19.69a.831.831,0,0,1,0,1.662,4.037,4.037,0,0,0-4.032,4.032V42.438a4.037,4.037,0,0,0,4.032,4.032H36.894a4.037,4.037,0,0,0,4.032-4.032V25.385a4.037,4.037,0,0,0-4.032-4.032.831.831,0,1,1,0-1.662,5.7,5.7,0,0,1,5.694,5.694V42.438A5.7,5.7,0,0,1,36.894,48.132Z" transform="translate(-14.146 -15.82)" fill="#aaa"/>
  <path id="Path_7141" data-name="Path 7141" d="M42.13,37.819H16.864a.831.831,0,0,1,0-1.662H42.13a.831.831,0,0,1,0,1.662Z" transform="translate(-15.276 -25.681)" fill="#aaa"/>
</svg>
