<svg xmlns="http://www.w3.org/2000/svg" width="31.499" height="31.5" viewBox="0 0 31.499 31.5">
  <g id="Group_2679" data-name="Group 2679" transform="translate(-88.11 -5834.834)">
    <g id="Group_167" data-name="Group 167" transform="translate(88.809 5835.535)">
      <path id="Path_375" data-name="Path 375" d="M168.276,5900.027a15.05,15.05,0,1,1-15.051-15.05,15.051,15.051,0,0,1,15.051,15.05" transform="translate(-138.175 -5884.977)" fill="none"/>
    </g>
    <g id="Group_168" data-name="Group 168" transform="translate(88.11 5834.834)">
      <path id="Path_376" data-name="Path 376" d="M103.86,5836.235a14.35,14.35,0,1,0,14.35,14.35,14.366,14.366,0,0,0-14.35-14.35m0,30.1a15.75,15.75,0,1,1,15.749-15.75,15.768,15.768,0,0,1-15.749,15.75" transform="translate(-88.11 -5834.835)" fill="#fff"/>
    </g>
    <g id="Group_169" data-name="Group 169" transform="translate(95.11 5844.851)">
      <path id="Path_377" data-name="Path 377" d="M589.142,6557.022l6.134,6.136,10.633-11.334" transform="translate(-589.142 -6551.823)" fill="none"/>
    </g>
    <g id="Group_170" data-name="Group 170" transform="translate(94.614 5844.372)">
      <path id="Path_378" data-name="Path 378" d="M560.333,6530.351l-6.646-6.646.99-.988,5.624,5.622,10.139-10.807,1.021.958Z" transform="translate(-553.688 -6517.532)" fill="#fff"/>
    </g>
  </g>
</svg>
