<svg xmlns="http://www.w3.org/2000/svg" xmlns:xlink="http://www.w3.org/1999/xlink" width="42.217" height="53.452" viewBox="0 0 42.217 53.452">
  <defs>
    <linearGradient id="linear-gradient" y1="0.5" x2="1" y2="0.5" gradientUnits="objectBoundingBox">
      <stop offset="0" stop-color="#13b7e4"/>
      <stop offset="1" stop-color="#505aef"/>
    </linearGradient>
    <linearGradient id="linear-gradient-2" y1="0.5" x2="1" y2="0.5" xlink:href="#linear-gradient"/>
    <linearGradient id="linear-gradient-3" y1="0.5" x2="1" y2="0.5" xlink:href="#linear-gradient"/>
    <linearGradient id="linear-gradient-4" y1="0.502" x2="1" y2="0.502" xlink:href="#linear-gradient"/>
    <linearGradient id="linear-gradient-5" y1="0.5" x2="1" y2="0.5" xlink:href="#linear-gradient"/>
    <linearGradient id="linear-gradient-6" y1="0.5" x2="1" y2="0.5" xlink:href="#linear-gradient"/>
  </defs>
  <g id="loginid-logo" transform="translate(-16.642 -4.647)">
    <g id="Group_2593" data-name="Group 2593" transform="translate(27.337 15.462)">
      <path id="Path_5810" data-name="Path 5810" d="M3.113-10.467A11.058,11.058,0,0,0,0-3.031a1.147,1.147,0,0,0,.3.773,1.038,1.038,0,0,0,.734.317A1.093,1.093,0,0,0,2.122-2.991,8.651,8.651,0,0,1,10.41-11.5,8.4,8.4,0,0,1,17.826-6.64a1.052,1.052,0,0,0,.595.535.972.972,0,0,0,.813-.059,1.064,1.064,0,0,0,.5-1.428,10.559,10.559,0,0,0-9.32-6.048A10.116,10.116,0,0,0,3.113-10.467Z" transform="translate(0 13.639)" fill="url(#linear-gradient)"/>
    </g>
    <g id="Group_2594" data-name="Group 2594" transform="translate(27.334 26.151)">
      <path id="Path_5811" data-name="Path 5811" d="M18.707-23.592v9.562a8.55,8.55,0,0,1-1.25,4.437l-.042.042a8.22,8.22,0,0,1-7,3.9A8.344,8.344,0,0,1,2.125-14.03v-5.312A1.067,1.067,0,0,0,1.062-20.4,1.067,1.067,0,0,0,0-19.342v5.312A10.482,10.482,0,0,0,10.416-3.51a10.4,10.4,0,0,0,8.833-4.937,10.527,10.527,0,0,0,1.583-5.583v-9.562a1.071,1.071,0,0,0-1.062-1.083A1.071,1.071,0,0,0,18.707-23.592Z" transform="translate(0 24.675)" fill="url(#linear-gradient-2)"/>
    </g>
    <g id="Group_2595" data-name="Group 2595" transform="translate(21.988 23.022)">
      <path id="Path_5812" data-name="Path 5812" d="M.641-34.425a1.073,1.073,0,0,0-.437.7A15.2,15.2,0,0,0,0-31.163v10.308A15.877,15.877,0,0,0,15.754-4.926a15.726,15.726,0,0,0,13.191-7.193,1.1,1.1,0,0,0-.291-1.485,1.011,1.011,0,0,0-.815-.175,1.183,1.183,0,0,0-.67.466A13.558,13.558,0,0,1,15.754-7.081,13.733,13.733,0,0,1,2.126-20.855V-31.163A14.169,14.169,0,0,1,2.3-33.376,1.081,1.081,0,0,0,1.4-34.6a.218.218,0,0,0-.146-.029A1.1,1.1,0,0,0,.641-34.425Z" transform="translate(0 34.628)" fill="url(#linear-gradient-3)"/>
    </g>
    <g id="Group_2596" data-name="Group 2596" transform="translate(24.493 10.051)">
      <path id="Path_5813" data-name="Path 5813" d="M.18-27.587A1.075,1.075,0,0,0,.5-26.107a.931.931,0,0,0,.784.145.93.93,0,0,0,.668-.464A13.566,13.566,0,0,1,13.27-32.841c7.4.029,13.641,6.559,13.641,14.28v10.3c0,.639-.058,1.306-.116,1.916a1.062,1.062,0,0,0,.9,1.219,1.088,1.088,0,0,0,1.19-.9,18.85,18.85,0,0,0,.145-2.235v-10.3a16.9,16.9,0,0,0-4.586-11.465A15.336,15.336,0,0,0,13.3-34.989,15.629,15.629,0,0,0,.18-27.587Z" transform="translate(-0.01 34.989)" fill="url(#linear-gradient-4)"/>
    </g>
    <g id="Group_2597" data-name="Group 2597" transform="translate(16.642 4.647)">
      <path id="Path_5814" data-name="Path 5814" d="M6.183-28.311A22.542,22.542,0,0,0,0-12.917v6.856A1.078,1.078,0,0,0,1.052-4.967,1.078,1.078,0,0,0,2.1-6.061v-6.856C2.1-23.642,10.81-32.77,21.115-32.77h.042c9.338.042,17.582,7.7,18.8,17.456a1.088,1.088,0,0,0,.379.715,1.1,1.1,0,0,0,.8.21,1.047,1.047,0,0,0,.925-1.178,22.769,22.769,0,0,0-6.9-13.628,20.543,20.543,0,0,0-14.006-5.72A20.477,20.477,0,0,0,6.183-28.311Z" transform="translate(0 34.915)" fill="url(#linear-gradient-5)"/>
    </g>
    <g id="Group_2598" data-name="Group 2598" transform="translate(16.738 28.453)">
      <path id="Path_5815" data-name="Path 5815" d="M39.991-33.51v7.285A19.15,19.15,0,0,1,21-7.023,19.075,19.075,0,0,1,2.092-24.2a1.306,1.306,0,0,0-.379-.758,1.272,1.272,0,0,0-.674-.211H.955a1.09,1.09,0,0,0-.716.379.931.931,0,0,0-.253.8,21.3,21.3,0,0,0,6.822,13.56A20.819,20.819,0,0,0,20.957-4.917,21.243,21.243,0,0,0,42.1-26.225V-33.51a1.043,1.043,0,0,0-1.053-1.053A1.043,1.043,0,0,0,39.991-33.51Z" transform="translate(0.025 34.563)" fill="url(#linear-gradient-6)"/>
    </g>
    <g id="Group_2599" data-name="Group 2599" transform="translate(32.79 25.172)">
      <path id="Path_5816" data-name="Path 5816" d="M-8.963-5.429l-.043.043a.776.776,0,0,0-.269.577c0,.371,0,2.681,0,2.681h-3.116s0-2.31,0-2.681a.771.771,0,0,0-.269-.577l-.041-.043a2.9,2.9,0,0,1-.964-2.153,2.85,2.85,0,0,1,2.83-2.86A2.85,2.85,0,0,1-8-7.582a2.9,2.9,0,0,1-.964,2.153M-10.827-12.5h0a4.9,4.9,0,0,0-4.862,4.921,4.962,4.962,0,0,0,1.217,3.256l.065.075V-1.1A1.026,1.026,0,0,0-13.393-.067h5.128A1.025,1.025,0,0,0-7.248-1.1V-4.251l.065-.075A4.957,4.957,0,0,0-5.965-7.582,4.9,4.9,0,0,0-10.827-12.5" transform="translate(15.694 12.503)" fill="#505aef"/>
    </g>
  </g>
</svg>
