<svg xmlns="http://www.w3.org/2000/svg" width="43.44" height="55" viewBox="0 0 43.44 55">
  <g id="Group_143" data-name="Group 143" transform="translate(-26.361 -206.441)">
    <g id="Group_133" data-name="Group 133" transform="translate(37.366 217.569)">
      <path id="Path_333" data-name="Path 333" d="M69.065,249.65a11.378,11.378,0,0,0-3.2,7.651,1.18,1.18,0,0,0,.306.8,1.069,1.069,0,0,0,.755.327,1.125,1.125,0,0,0,1.122-1.081,8.9,8.9,0,0,1,8.528-8.753,8.639,8.639,0,0,1,7.631,5,1.083,1.083,0,0,0,.612.551,1,1,0,0,0,.837-.061,1.1,1.1,0,0,0,.51-1.469,10.864,10.864,0,0,0-9.589-6.223A10.41,10.41,0,0,0,69.065,249.65Z" transform="translate(-65.862 -246.385)" fill="#fff"/>
    </g>
    <g id="Group_134" data-name="Group 134" transform="translate(37.363 228.568)">
      <path id="Path_334" data-name="Path 334" d="M85.1,286.98v9.838a8.8,8.8,0,0,1-1.286,4.566l-.043.043a8.458,8.458,0,0,1-7.2,4.008,8.585,8.585,0,0,1-8.531-8.617v-5.466a1.093,1.093,0,0,0-2.186,0v5.466a10.718,10.718,0,1,0,21.435,0V286.98a1.093,1.093,0,1,0-2.186,0Z" transform="translate(-65.851 -285.865)" fill="#fff"/>
    </g>
    <g id="Group_135" data-name="Group 135" transform="translate(31.862 225.348)">
      <path id="Path_335" data-name="Path 335" d="M46.765,274.518a1.1,1.1,0,0,0-.449.719,15.635,15.635,0,0,0-.21,2.637v10.607a16.189,16.189,0,0,0,29.783,8.989,1.131,1.131,0,0,0-.3-1.528,1.041,1.041,0,0,0-.839-.18,1.217,1.217,0,0,0-.689.479,13.951,13.951,0,0,1-11.746,6.412,14.131,14.131,0,0,1-14.023-14.172V277.874a14.586,14.586,0,0,1,.18-2.277,1.112,1.112,0,0,0-.929-1.258.225.225,0,0,0-.15-.03A1.13,1.13,0,0,0,46.765,274.518Z" transform="translate(-46.106 -274.309)" fill="#fff"/>
    </g>
    <g id="Group_136" data-name="Group 136" transform="translate(34.439 212.001)">
      <path id="Path_336" data-name="Path 336" d="M55.532,234.015a1.107,1.107,0,0,0,.328,1.523,1.075,1.075,0,0,0,1.493-.328A13.959,13.959,0,0,1,69,228.609c7.615.03,14.036,6.749,14.036,14.693v10.6c0,.657-.06,1.344-.12,1.971a1.093,1.093,0,0,0,.926,1.254,1.12,1.12,0,0,0,1.225-.926,19.426,19.426,0,0,0,.149-2.3V243.3a17.387,17.387,0,0,0-4.719-11.8A15.779,15.779,0,0,0,69.031,226.4,16.081,16.081,0,0,0,55.532,234.015Z" transform="translate(-55.357 -226.399)" fill="#fff"/>
    </g>
    <g id="Group_137" data-name="Group 137" transform="translate(26.361 206.441)">
      <path id="Path_337" data-name="Path 337" d="M32.723,213.236a23.2,23.2,0,0,0-6.362,15.84v7.054a1.083,1.083,0,1,0,2.164,0v-7.054c0-11.036,8.959-20.428,19.562-20.428h.043c9.608.043,18.091,7.92,19.346,17.961a1.12,1.12,0,0,0,.389.736,1.135,1.135,0,0,0,.822.216,1.077,1.077,0,0,0,.952-1.212,23.428,23.428,0,0,0-7.1-14.022,20.732,20.732,0,0,0-29.82.909Z" transform="translate(-26.361 -206.441)" fill="#fff"/>
    </g>
    <g id="Group_138" data-name="Group 138" transform="translate(26.46 230.937)">
      <path id="Path_338" data-name="Path 338" d="M67.892,295.451v7.5a19.544,19.544,0,0,1-39,2.08,1.344,1.344,0,0,0-.39-.78,1.309,1.309,0,0,0-.693-.217h-.087a1.122,1.122,0,0,0-.737.39.959.959,0,0,0-.26.823A21.911,21.911,0,0,0,33.747,319.2a21.421,21.421,0,0,0,14.559,5.676,21.858,21.858,0,0,0,21.752-21.925v-7.5a1.083,1.083,0,1,0-2.166,0Z" transform="translate(-26.717 -294.368)" fill="#fff"/>
    </g>
    <g id="Group_139" data-name="Group 139" transform="translate(42.976 227.561)">
      <path id="Path_339" data-name="Path 339" d="M92.927,289.529l-.044.044a.8.8,0,0,0-.277.594c0,.382,0,2.759,0,2.759H89.406s0-2.377,0-2.759a.794.794,0,0,0-.277-.594l-.043-.044a2.981,2.981,0,0,1-.992-2.215,2.913,2.913,0,1,1,5.825,0,2.981,2.981,0,0,1-.992,2.215M91.01,282.25H91a5.043,5.043,0,0,0-5,5.064,5.106,5.106,0,0,0,1.252,3.35l.067.077v3.245a1.056,1.056,0,0,0,1.049,1.061h5.276a1.055,1.055,0,0,0,1.047-1.061v-3.245l.067-.077a5.1,5.1,0,0,0,1.253-3.35,5.044,5.044,0,0,0-5-5.064" transform="translate(-86.002 -282.25)" fill="#fff"/>
    </g>
  </g>
</svg>
