<svg xmlns="http://www.w3.org/2000/svg" width="60.276" height="26.371" viewBox="0 0 60.276 26.371">
  <path id="Path_6073" data-name="Path 6073" d="M57.091,32.5c-4.671,0-11.076,4.822-15.822,9.041l1.507,1.507c.527.527,1.13,1.13,1.733,1.658,5.35-4.747,10.172-7.685,12.583-7.685a8.618,8.618,0,0,1,8.665,8.665A8.738,8.738,0,0,1,58.6,54.275a9.275,9.275,0,0,1-1.507.151C53.4,54.425,45.714,48.1,41.72,44.1,40.515,42.9,29.966,32.5,23.185,32.5a10.1,10.1,0,0,0-1.507.075,13.191,13.191,0,0,0,1.507,26.3c4.671,0,11.076-4.822,15.822-9.041-.678-.6-1.206-1.13-1.582-1.507-.527-.527-1.13-1.13-1.733-1.658-5.35,4.747-10.172,7.685-12.583,7.685a8.65,8.65,0,0,1-8.589-8.665A8.738,8.738,0,0,1,21.678,37.1a9.275,9.275,0,0,1,1.507-.151c3.692,0,11.377,6.329,15.37,10.322,1.206,1.206,11.754,11.6,18.535,11.6A10.1,10.1,0,0,0,58.6,58.8a13.191,13.191,0,0,0-1.507-26.3Z" transform="translate(-10 -32.5)" fill="#fff"/>
</svg>
