<svg xmlns="http://www.w3.org/2000/svg" width="42.105" height="44.146" viewBox="0 0 42.105 44.146">
  <g id="noun_One_fifteen_1120950" data-name="noun_One fifteen_1120950" transform="translate(-9.14 -10.075)">
    <g id="Group_2740" data-name="Group 2740" transform="translate(12.159 15.15)">
      <path id="Path_6074" data-name="Path 6074" d="M33.034,22.846A15.112,15.112,0,1,1,17.921,37.959,15.13,15.13,0,0,1,33.034,22.846m0-2.921A18.034,18.034,0,1,0,51.067,37.959,18.034,18.034,0,0,0,33.034,19.925Z" transform="translate(-15 -19.925)" fill="#fff"/>
    </g>
    <g id="Group_2741" data-name="Group 2741" transform="translate(41.785 46.998)">
      <line id="Line_1" data-name="Line 1" x2="3.865" y2="4.219" fill="none" stroke="#fff" stroke-linecap="round" stroke-miterlimit="10" stroke-width="4.252"/>
    </g>
    <g id="Group_2742" data-name="Group 2742" transform="translate(14.736 46.998)">
      <line id="Line_2" data-name="Line 2" x1="3.865" y2="4.219" fill="none" stroke="#fff" stroke-linecap="round" stroke-miterlimit="10" stroke-width="4.252"/>
    </g>
    <line id="Line_3" data-name="Line 3" x2="12.881" transform="translate(30.193 33.184)" fill="none" stroke="#fff" stroke-linecap="round" stroke-miterlimit="10" stroke-width="4.252"/>
    <line id="Line_4" data-name="Line 4" y1="8.925" x2="5.152" transform="translate(30.193 24.259)" fill="none" stroke="#fff" stroke-linecap="round" stroke-miterlimit="10" stroke-width="4.252"/>
    <g id="Group_2743" data-name="Group 2743" transform="translate(37.52 10.075)">
      <path id="Path_6075" data-name="Path 6075" d="M67.216,13.324l.922-1.1a.809.809,0,0,1,.218-.023c1.026,0,3.293.976,5.845,3.117,3.151,2.644,4.195,4.919,4.1,5.432l-.924,1.1Z" transform="translate(-65.672 -11.106)" fill="#fff"/>
      <path id="Path_6076" data-name="Path 6076" d="M67.622,12.421a14.561,14.561,0,0,1,4.423,2.705,14.9,14.9,0,0,1,3.443,3.9l-7.867-6.6M66.9,10.075a1.28,1.28,0,0,0-1.027.379L64.22,12.428l11.841,9.936,1.656-1.973c.915-1.09-.995-4.2-4.265-6.941-2.5-2.1-5.067-3.374-6.549-3.374Z" transform="translate(-64.22 -10.075)" fill="#fff"/>
    </g>
    <g id="Group_2744" data-name="Group 2744" transform="translate(9.14 10.075)">
      <path id="Path_6077" data-name="Path 6077" d="M11.262,20.75c-.093-.513.951-2.787,4.1-5.432,2.552-2.141,4.819-3.117,5.845-3.117a.8.8,0,0,1,.218.023l.922,1.1L12.186,21.851Z" transform="translate(-10.166 -11.106)" fill="#fff"/>
      <path id="Path_6078" data-name="Path 6078" d="M19.464,12.421l-7.866,6.6a14.885,14.885,0,0,1,3.443-3.9,14.558,14.558,0,0,1,4.423-2.706m.718-2.346c-1.481,0-4.051,1.277-6.549,3.373-3.27,2.744-5.179,5.852-4.265,6.941l1.656,1.973,11.841-9.936L21.21,10.454a1.282,1.282,0,0,0-1.027-.379Z" transform="translate(-9.14 -10.075)" fill="#fff"/>
    </g>
  </g>
</svg>
