<svg xmlns="http://www.w3.org/2000/svg" width="79.543" height="66.873" viewBox="0 0 79.543 66.873">
  <g id="noun_Error_696590" transform="translate(-37.679 -33.49)">
    <path id="Path_6163" data-name="Path 6163" d="M115.391,87.806a9.7,9.7,0,0,0-1.992-6.26h0L85.511,38.007a11.877,11.877,0,0,0-19.92,0L37.7,81.546A11.32,11.32,0,0,0,37.419,93.5a11.611,11.611,0,0,0,10.244,5.976h55.775A11.611,11.611,0,0,0,113.683,93.5,10.261,10.261,0,0,0,115.391,87.806Zm-7.968,2.277a4.541,4.541,0,0,1-3.984,2.277H47.948a4.542,4.542,0,0,1-3.984-2.277,4.389,4.389,0,0,1,.285-4.553L72.137,41.991a4.431,4.431,0,0,1,7.4,0l27.888,43.539a3.066,3.066,0,0,1,.569,2.277A6.7,6.7,0,0,1,107.423,90.083Z" transform="translate(1.831 0.89)" fill="#fff"/>
    <rect id="Rectangle_580" data-name="Rectangle 580" width="7.114" height="6.545" transform="translate(73.967 79.59)" fill="#fff"/>
    <rect id="Rectangle_581" data-name="Rectangle 581" width="7.114" height="19.92" transform="translate(73.967 54.833)" fill="#fff"/>
  </g>
</svg>
